<?xml version="1.0" encoding="utf-8"?>
<!-- Generator: Adobe Illustrator 16.0.0, SVG Export Plug-In . SVG Version: 6.00 Build 0)  -->
<!DOCTYPE svg PUBLIC "-//W3C//DTD SVG 1.1//EN" "http://www.w3.org/Graphics/SVG/1.1/DTD/svg11.dtd">
<svg version="1.1" id="图层_1" xmlns="http://www.w3.org/2000/svg" xmlns:xlink="http://www.w3.org/1999/xlink" x="0px" y="0px"
	 width="360.5px" height="119.5px" viewBox="0 0 360.5 119.5" enable-background="new 0 0 360.5 119.5" xml:space="preserve">
<rect x="6" y="6.194" fill="#1190BF" width="50" height="20"/>
<rect x="56" y="6.194" fill="#E94745" width="240" height="20"/>
<rect x="296" y="6.194" fill="#649433" width="60" height="20"/>
<text transform="matrix(1 0 0 1 19.6948 20.5596)" fill="#FFFFFF" font-family="'Verdana'" font-size="14">req</text>
<text transform="matrix(1 0 0 1 315 20.5596)" fill="#FFFFFF" font-family="'Verdana'" font-size="14">res</text>
<text transform="matrix(1 0 0 1 166.6948 20.5596)" fill="#FFFFFF" font-family="'Verdana'" font-size="14">wait</text>
<path fill="none" d="M133.983,72.441"/>
<path fill="none" d="M56,17.525"/>
<g>
	<g>
		<path fill="none" stroke="#CCCCCC" stroke-miterlimit="10" d="M59,17.525c0.252,0,0.503,0.002,0.752,0.005"/>
		<path fill="none" stroke="#CCCCCC" stroke-miterlimit="10" stroke-dasharray="1.4918,0.9945" d="M60.749,17.554
			c44.23,1.449,32.004,58.094,69.404,66.027"/>
		<path fill="none" stroke="#CCCCCC" stroke-miterlimit="10" d="M130.637,83.681c0.244,0.048,0.49,0.095,0.738,0.139"/>
		<g>
			<path fill="#CCCCCC" d="M129.607,83.465l-1.805-3.812l0.131-0.068l5.6,2.933c1.989,0.66,3.978,1.321,5.967,1.982
				c-2.083,0.234-4.165,0.47-6.248,0.705l-6.086,1.709l-0.116-0.074L129.607,83.465z"/>
		</g>
	</g>
</g>
<g>
	<path fill="#999899" d="M208.034,103.865c-14.536,14.536-49.108,14.96-64.068,0V59.797h64.068V103.865z"/>
	<ellipse fill="#666666" cx="176" cy="59.797" rx="32.034" ry="12.725"/>
</g>
<g>
	<g>
		<path fill="none" stroke="#CCCCCC" stroke-miterlimit="10" d="M285.516,18.233c-0.248,0.044-0.494,0.09-0.738,0.138"/>
		<path fill="none" stroke="#CCCCCC" stroke-miterlimit="10" stroke-dasharray="1.4918,0.9945" d="M283.803,18.575
			c-37.196,8.314-24.999,64.907-69.412,65.945"/>
		<path fill="none" stroke="#CCCCCC" stroke-miterlimit="10" d="M213.894,84.529c-0.249,0.003-0.5,0.005-0.752,0.005"/>
		<g>
			<path fill="#CCCCCC" d="M283.747,18.583l-1.81,3.809l0.131,0.068l5.604-2.925c1.989-0.658,3.979-1.317,5.969-1.976
				c-2.082-0.237-4.165-0.475-6.247-0.712l-6.084-1.717l-0.116,0.074L283.747,18.583z"/>
		</g>
	</g>
</g>
<text transform="matrix(1 0 0 1 165.6948 96.667)" fill="#323333" font-family="'Verdana'" font-size="14">DB</text>
</svg>
